<svg xmlns="http://www.w3.org/2000/svg" width="616" height="176" class="svgbob">
  <style>
    .svgbob line, .svgbob path, .svgbob circle, .svgbob rect, .svgbob polygon {
        stroke: #d84859;
        stroke-width: 2;
        stroke-opacity: 1;
        fill-opacity: 1;
        stroke-linecap: round;
        stroke-linejoin: miter;
    }
    .svgbob text {
        white-space: pre;
        fill: #d84859;
        font-family: Iosevka Fixed, monospace;
        font-size: 14px;
    }
    .svgbob rect.backdrop {
        stroke: none;
        fill: white;
    }
    .svgbob .broken {
        stroke-dasharray: 8;
    }
    .svgbob .filled {
        fill: #d84859;
    }
    .svgbob .bg_filled {
        fill: white;
        stroke-width: 1;
    }
    .svgbob .nofill {
        fill: white;
    }
    .svgbob .end_marked_arrow {
        marker-end: url(#arrow);
    }
    .svgbob .start_marked_arrow {
        marker-start: url(#arrow);
    }
    .svgbob .end_marked_diamond {
        marker-end: url(#diamond);
    }
    .svgbob .start_marked_diamond {
        marker-start: url(#diamond);
    }
    .svgbob .end_marked_circle {
        marker-end: url(#circle);
    }
    .svgbob .start_marked_circle {
        marker-start: url(#circle);
    }
    .svgbob .end_marked_open_circle {
        marker-end: url(#open_circle);
    }
    .svgbob .start_marked_open_circle {
        marker-start: url(#open_circle);
    }
    .svgbob .end_marked_big_open_circle {
        marker-end: url(#big_open_circle);
    }
    .svgbob .start_marked_big_open_circle {
        marker-start: url(#big_open_circle);
    }
    <!--separator-->
  </style>
  <defs>
    <marker
      id="arrow"
      viewBox="-2 -2 8 8"
      refX="4"
      refY="2"
      markerWidth="7"
      markerHeight="7"
      orient="auto-start-reverse"
    >
      <polygon points="0,0 0,4 4,2 0,0"></polygon>
    </marker>
    <marker
      id="diamond"
      viewBox="-2 -2 8 8"
      refX="4"
      refY="2"
      markerWidth="7"
      markerHeight="7"
      orient="auto-start-reverse"
    >
      <polygon points="0,2 2,0 4,2 2,4 0,2"></polygon>
    </marker>
    <marker
      id="circle"
      viewBox="0 0 8 8"
      refX="4"
      refY="4"
      markerWidth="7"
      markerHeight="7"
      orient="auto-start-reverse"
    >
      <circle cx="4" cy="4" r="2" class="filled"></circle>
    </marker>
    <marker
      id="open_circle"
      viewBox="0 0 8 8"
      refX="4"
      refY="4"
      markerWidth="7"
      markerHeight="7"
      orient="auto-start-reverse"
    >
      <circle cx="4" cy="4" r="2" class="bg_filled"></circle>
    </marker>
    <marker
      id="big_open_circle"
      viewBox="0 0 8 8"
      refX="4"
      refY="4"
      markerWidth="7"
      markerHeight="7"
      orient="auto-start-reverse"
    >
      <circle cx="4" cy="4" r="3" class="bg_filled"></circle>
    </marker>
  </defs>
  <rect class="backdrop" x="0" y="0" width="616" height="176"></rect>
  <rect x="96" y="16" width="8" height="16" class="solid filled" rx="0"></rect>
  <rect x="104" y="16" width="8" height="16" class="solid filled" rx="0"></rect>
  <rect x="136" y="16" width="8" height="16" class="solid filled" rx="0"></rect>
  <rect x="144" y="16" width="8" height="16" class="solid filled" rx="0"></rect>
  <rect x="168" y="16" width="8" height="16" class="solid filled" rx="0"></rect>
  <rect x="176" y="16" width="8" height="16" class="solid filled" rx="0"></rect>
  <rect x="184" y="16" width="8" height="16" class="solid filled" rx="0"></rect>
  <rect x="192" y="16" width="8" height="16" class="solid filled" rx="0"></rect>
  <rect x="200" y="16" width="8" height="16" class="solid filled" rx="0"></rect>
  <rect x="224" y="16" width="8" height="16" class="solid filled" rx="0"></rect>
  <rect x="232" y="16" width="8" height="16" class="solid filled" rx="0"></rect>
  <rect x="240" y="16" width="8" height="16" class="solid filled" rx="0"></rect>
  <rect x="248" y="16" width="8" height="16" class="solid filled" rx="0"></rect>
  <rect x="256" y="16" width="8" height="16" class="solid filled" rx="0"></rect>
  <rect x="264" y="16" width="8" height="16" class="solid filled" rx="0"></rect>
  <rect x="272" y="16" width="8" height="16" class="solid filled" rx="0"></rect>
  <rect x="280" y="16" width="8" height="16" class="solid filled" rx="0"></rect>
  <rect x="304" y="16" width="8" height="16" class="solid filled" rx="0"></rect>
  <rect x="312" y="16" width="8" height="16" class="solid filled" rx="0"></rect>
  <rect x="320" y="16" width="8" height="16" class="solid filled" rx="0"></rect>
  <rect x="328" y="16" width="8" height="16" class="solid filled" rx="0"></rect>
  <rect x="336" y="16" width="8" height="16" class="solid filled" rx="0"></rect>
  <rect x="360" y="16" width="8" height="16" class="solid filled" rx="0"></rect>
  <rect x="368" y="16" width="8" height="16" class="solid filled" rx="0"></rect>
  <rect x="376" y="16" width="8" height="16" class="solid filled" rx="0"></rect>
  <rect x="416" y="16" width="8" height="16" class="solid filled" rx="0"></rect>
  <rect x="424" y="16" width="8" height="16" class="solid filled" rx="0"></rect>
  <rect x="448" y="16" width="8" height="16" class="solid filled" rx="0"></rect>
  <rect x="456" y="16" width="8" height="16" class="solid filled" rx="0"></rect>
  <rect x="464" y="16" width="8" height="16" class="solid filled" rx="0"></rect>
  <rect x="472" y="16" width="8" height="16" class="solid filled" rx="0"></rect>
  <rect x="480" y="16" width="8" height="16" class="solid filled" rx="0"></rect>
  <rect x="96" y="32" width="8" height="16" class="solid filled" rx="0"></rect>
  <rect x="104" y="32" width="8" height="16" class="solid filled" rx="0"></rect>
  <rect x="128" y="32" width="8" height="16" class="solid filled" rx="0"></rect>
  <rect x="136" y="32" width="8" height="16" class="solid filled" rx="0"></rect>
  <rect x="160" y="32" width="8" height="16" class="solid filled" rx="0"></rect>
  <rect x="168" y="32" width="8" height="16" class="solid filled" rx="0"></rect>
  <rect x="200" y="32" width="8" height="16" class="solid filled" rx="0"></rect>
  <rect x="208" y="32" width="8" height="16" class="solid filled" rx="0"></rect>
  <rect x="248" y="32" width="8" height="16" class="solid filled" rx="0"></rect>
  <rect x="256" y="32" width="8" height="16" class="solid filled" rx="0"></rect>
  <rect x="296" y="32" width="8" height="16" class="solid filled" rx="0"></rect>
  <rect x="304" y="32" width="8" height="16" class="solid filled" rx="0"></rect>
  <rect x="336" y="32" width="8" height="16" class="solid filled" rx="0"></rect>
  <rect x="344" y="32" width="8" height="16" class="solid filled" rx="0"></rect>
  <rect x="360" y="32" width="8" height="16" class="solid filled" rx="0"></rect>
  <rect x="368" y="32" width="8" height="16" class="solid filled" rx="0"></rect>
  <rect x="376" y="32" width="8" height="16" class="solid filled" rx="0"></rect>
  <rect x="384" y="32" width="8" height="16" class="solid filled" rx="0"></rect>
  <rect x="416" y="32" width="8" height="16" class="solid filled" rx="0"></rect>
  <rect x="424" y="32" width="8" height="16" class="solid filled" rx="0"></rect>
  <rect x="440" y="32" width="8" height="16" class="solid filled" rx="0"></rect>
  <rect x="448" y="32" width="8" height="16" class="solid filled" rx="0"></rect>
  <rect x="480" y="32" width="8" height="16" class="solid filled" rx="0"></rect>
  <rect x="488" y="32" width="8" height="16" class="solid filled" rx="0"></rect>
  <rect x="96" y="48" width="8" height="16" class="solid filled" rx="0"></rect>
  <rect x="104" y="48" width="8" height="16" class="solid filled" rx="0"></rect>
  <rect x="112" y="48" width="8" height="16" class="solid filled" rx="0"></rect>
  <rect x="120" y="48" width="8" height="16" class="solid filled" rx="0"></rect>
  <rect x="128" y="48" width="8" height="16" class="solid filled" rx="0"></rect>
  <rect x="160" y="48" width="8" height="16" class="solid filled" rx="0"></rect>
  <rect x="168" y="48" width="8" height="16" class="solid filled" rx="0"></rect>
  <rect x="176" y="48" width="8" height="16" class="solid filled" rx="0"></rect>
  <rect x="184" y="48" width="8" height="16" class="solid filled" rx="0"></rect>
  <rect x="192" y="48" width="8" height="16" class="solid filled" rx="0"></rect>
  <rect x="200" y="48" width="8" height="16" class="solid filled" rx="0"></rect>
  <rect x="208" y="48" width="8" height="16" class="solid filled" rx="0"></rect>
  <rect x="248" y="48" width="8" height="16" class="solid filled" rx="0"></rect>
  <rect x="256" y="48" width="8" height="16" class="solid filled" rx="0"></rect>
  <rect x="296" y="48" width="8" height="16" class="solid filled" rx="0"></rect>
  <rect x="304" y="48" width="8" height="16" class="solid filled" rx="0"></rect>
  <rect x="312" y="48" width="8" height="16" class="solid filled" rx="0"></rect>
  <rect x="320" y="48" width="8" height="16" class="solid filled" rx="0"></rect>
  <rect x="328" y="48" width="8" height="16" class="solid filled" rx="0"></rect>
  <rect x="336" y="48" width="8" height="16" class="solid filled" rx="0"></rect>
  <rect x="344" y="48" width="8" height="16" class="solid filled" rx="0"></rect>
  <rect x="360" y="48" width="8" height="16" class="solid filled" rx="0"></rect>
  <rect x="368" y="48" width="8" height="16" class="solid filled" rx="0"></rect>
  <rect x="384" y="48" width="8" height="16" class="solid filled" rx="0"></rect>
  <rect x="392" y="48" width="8" height="16" class="solid filled" rx="0"></rect>
  <rect x="416" y="48" width="8" height="16" class="solid filled" rx="0"></rect>
  <rect x="424" y="48" width="8" height="16" class="solid filled" rx="0"></rect>
  <rect x="440" y="48" width="8" height="16" class="solid filled" rx="0"></rect>
  <rect x="448" y="48" width="8" height="16" class="solid filled" rx="0"></rect>
  <rect x="456" y="48" width="8" height="16" class="solid filled" rx="0"></rect>
  <rect x="464" y="48" width="8" height="16" class="solid filled" rx="0"></rect>
  <rect x="472" y="48" width="8" height="16" class="solid filled" rx="0"></rect>
  <rect x="480" y="48" width="8" height="16" class="solid filled" rx="0"></rect>
  <rect x="488" y="48" width="8" height="16" class="solid filled" rx="0"></rect>
  <rect x="96" y="64" width="8" height="16" class="solid filled" rx="0"></rect>
  <rect x="104" y="64" width="8" height="16" class="solid filled" rx="0"></rect>
  <rect x="128" y="64" width="8" height="16" class="solid filled" rx="0"></rect>
  <rect x="136" y="64" width="8" height="16" class="solid filled" rx="0"></rect>
  <rect x="160" y="64" width="8" height="16" class="solid filled" rx="0"></rect>
  <rect x="168" y="64" width="8" height="16" class="solid filled" rx="0"></rect>
  <rect x="200" y="64" width="8" height="16" class="solid filled" rx="0"></rect>
  <rect x="208" y="64" width="8" height="16" class="solid filled" rx="0"></rect>
  <rect x="248" y="64" width="8" height="16" class="solid filled" rx="0"></rect>
  <rect x="256" y="64" width="8" height="16" class="solid filled" rx="0"></rect>
  <rect x="296" y="64" width="8" height="16" class="solid filled" rx="0"></rect>
  <rect x="304" y="64" width="8" height="16" class="solid filled" rx="0"></rect>
  <rect x="336" y="64" width="8" height="16" class="solid filled" rx="0"></rect>
  <rect x="344" y="64" width="8" height="16" class="solid filled" rx="0"></rect>
  <rect x="360" y="64" width="8" height="16" class="solid filled" rx="0"></rect>
  <rect x="368" y="64" width="8" height="16" class="solid filled" rx="0"></rect>
  <rect x="392" y="64" width="8" height="16" class="solid filled" rx="0"></rect>
  <rect x="400" y="64" width="8" height="16" class="solid filled" rx="0"></rect>
  <rect x="416" y="64" width="8" height="16" class="solid filled" rx="0"></rect>
  <rect x="424" y="64" width="8" height="16" class="solid filled" rx="0"></rect>
  <rect x="440" y="64" width="8" height="16" class="solid filled" rx="0"></rect>
  <rect x="448" y="64" width="8" height="16" class="solid filled" rx="0"></rect>
  <rect x="480" y="64" width="8" height="16" class="solid filled" rx="0"></rect>
  <rect x="488" y="64" width="8" height="16" class="solid filled" rx="0"></rect>
  <rect x="96" y="80" width="8" height="16" class="solid filled" rx="0"></rect>
  <rect x="104" y="80" width="8" height="16" class="solid filled" rx="0"></rect>
  <rect x="136" y="80" width="8" height="16" class="solid filled" rx="0"></rect>
  <rect x="144" y="80" width="8" height="16" class="solid filled" rx="0"></rect>
  <rect x="160" y="80" width="8" height="16" class="solid filled" rx="0"></rect>
  <rect x="168" y="80" width="8" height="16" class="solid filled" rx="0"></rect>
  <rect x="200" y="80" width="8" height="16" class="solid filled" rx="0"></rect>
  <rect x="208" y="80" width="8" height="16" class="solid filled" rx="0"></rect>
  <rect x="248" y="80" width="8" height="16" class="solid filled" rx="0"></rect>
  <rect x="256" y="80" width="8" height="16" class="solid filled" rx="0"></rect>
  <rect x="296" y="80" width="8" height="16" class="solid filled" rx="0"></rect>
  <rect x="304" y="80" width="8" height="16" class="solid filled" rx="0"></rect>
  <rect x="336" y="80" width="8" height="16" class="solid filled" rx="0"></rect>
  <rect x="344" y="80" width="8" height="16" class="solid filled" rx="0"></rect>
  <rect x="360" y="80" width="8" height="16" class="solid filled" rx="0"></rect>
  <rect x="368" y="80" width="8" height="16" class="solid filled" rx="0"></rect>
  <rect x="400" y="80" width="8" height="16" class="solid filled" rx="0"></rect>
  <rect x="408" y="80" width="8" height="16" class="solid filled" rx="0"></rect>
  <rect x="416" y="80" width="8" height="16" class="solid filled" rx="0"></rect>
  <rect x="424" y="80" width="8" height="16" class="solid filled" rx="0"></rect>
  <rect x="440" y="80" width="8" height="16" class="solid filled" rx="0"></rect>
  <rect x="448" y="80" width="8" height="16" class="solid filled" rx="0"></rect>
  <rect x="480" y="80" width="8" height="16" class="solid filled" rx="0"></rect>
  <rect x="488" y="80" width="8" height="16" class="solid filled" rx="0"></rect>
  <line x1="444" y1="112" x2="444" y2="160" class="solid"></line>
  <text x="458" y="124">.</text>
  <line x1="464" y1="128" x2="472" y2="128" class="solid"></line>
  <text x="474" y="124">.</text>
  <line x1="480" y1="128" x2="488" y2="128" class="solid"></line>
  <text x="490" y="124">.</text>
  <line x1="496" y1="128" x2="504" y2="128" class="solid"></line>
  <text x="506" y="124">.</text>
  <line x1="512" y1="128" x2="520" y2="128" class="solid"></line>
  <text x="522" y="124">.</text>
  <line x1="528" y1="128" x2="536" y2="128" class="solid"></line>
  <text x="538" y="124">.</text>
  <line x1="544" y1="128" x2="552" y2="128" class="solid"></line>
  <text x="554" y="124">.</text>
  <line x1="560" y1="128" x2="568" y2="128" class="solid"></line>
  <text x="570" y="124">.</text>
  <line x1="576" y1="128" x2="584" y2="128" class="solid"></line>
  <text x="586" y="124">.</text>
  <line x1="460" y1="128" x2="460" y2="132" class="solid"></line>
  <rect x="456" y="132" width="8" height="8" class="solid filled" rx="0"></rect>
  <line x1="464" y1="144" x2="472" y2="144" class="solid"></line>
  <line x1="476" y1="128" x2="476" y2="132" class="solid"></line>
  <rect x="472" y="132" width="8" height="8" class="solid filled" rx="0"></rect>
  <line x1="480" y1="144" x2="488" y2="144" class="solid"></line>
  <line x1="492" y1="128" x2="492" y2="132" class="solid"></line>
  <rect x="488" y="132" width="8" height="8" class="solid filled" rx="0"></rect>
  <line x1="496" y1="144" x2="504" y2="144" class="solid"></line>
  <line x1="508" y1="128" x2="508" y2="132" class="solid"></line>
  <rect x="504" y="132" width="8" height="8" class="solid filled" rx="0"></rect>
  <line x1="512" y1="144" x2="520" y2="144" class="solid"></line>
  <line x1="524" y1="128" x2="524" y2="132" class="solid"></line>
  <rect x="520" y="132" width="8" height="8" class="solid filled" rx="0"></rect>
  <line x1="528" y1="144" x2="536" y2="144" class="solid"></line>
  <line x1="540" y1="128" x2="540" y2="132" class="solid"></line>
  <rect x="536" y="132" width="8" height="8" class="solid filled" rx="0"></rect>
  <line x1="544" y1="144" x2="552" y2="144" class="solid"></line>
  <line x1="556" y1="128" x2="556" y2="132" class="solid"></line>
  <rect x="552" y="132" width="8" height="8" class="solid filled" rx="0"></rect>
  <line x1="560" y1="144" x2="568" y2="144" class="solid"></line>
  <line x1="572" y1="128" x2="572" y2="132" class="solid"></line>
  <rect x="568" y="132" width="8" height="8" class="solid filled" rx="0"></rect>
  <line x1="576" y1="144" x2="584" y2="144" class="solid"></line>
  <line x1="588" y1="128" x2="588" y2="132" class="solid"></line>
  <rect x="584" y="132" width="8" height="8" class="solid filled" rx="0"></rect>
  <g>
    <line x1="112" y1="24" x2="118" y2="24" class="solid"></line>
    <line x1="118" y1="24" x2="118" y2="48" class="solid"></line>
  </g>
  <g>
    <line x1="112" y1="28" x2="114" y2="28" class="solid"></line>
    <line x1="114" y1="28" x2="114" y2="48" class="solid"></line>
  </g>
  <g>
    <line x1="152" y1="24" x2="158" y2="24" class="solid"></line>
    <line x1="158" y1="24" x2="158" y2="44" class="solid"></line>
    <line x1="150" y1="44" x2="158" y2="44" class="solid"></line>
    <line x1="150" y1="44" x2="150" y2="60" class="solid"></line>
    <line x1="142" y1="60" x2="150" y2="60" class="solid"></line>
    <line x1="142" y1="60" x2="142" y2="64" class="solid"></line>
  </g>
  <g>
    <line x1="152" y1="28" x2="154" y2="28" class="solid"></line>
    <line x1="154" y1="28" x2="154" y2="40" class="solid"></line>
    <line x1="146" y1="40" x2="154" y2="40" class="solid"></line>
    <line x1="146" y1="40" x2="146" y2="56" class="solid"></line>
    <line x1="138" y1="56" x2="146" y2="56" class="solid"></line>
    <line x1="138" y1="56" x2="138" y2="64" class="solid"></line>
  </g>
  <g>
    <line x1="208" y1="24" x2="214" y2="24" class="solid"></line>
    <line x1="214" y1="24" x2="214" y2="32" class="solid"></line>
  </g>
  <g>
    <line x1="208" y1="28" x2="210" y2="28" class="solid"></line>
    <line x1="210" y1="28" x2="210" y2="32" class="solid"></line>
  </g>
  <g>
    <line x1="288" y1="24" x2="294" y2="24" class="solid"></line>
    <line x1="294" y1="24" x2="294" y2="44" class="solid"></line>
    <line x1="270" y1="44" x2="294" y2="44" class="solid"></line>
    <line x1="270" y1="44" x2="270" y2="108" class="solid"></line>
    <line x1="250" y1="96" x2="250" y2="108" class="solid"></line>
    <line x1="250" y1="108" x2="270" y2="108" class="solid"></line>
  </g>
  <g>
    <line x1="288" y1="28" x2="290" y2="28" class="solid"></line>
    <line x1="290" y1="28" x2="290" y2="40" class="solid"></line>
    <line x1="266" y1="40" x2="290" y2="40" class="solid"></line>
    <line x1="266" y1="40" x2="266" y2="104" class="solid"></line>
    <line x1="254" y1="96" x2="254" y2="104" class="solid"></line>
    <line x1="254" y1="104" x2="266" y2="104" class="solid"></line>
  </g>
  <g>
    <line x1="344" y1="24" x2="350" y2="24" class="solid"></line>
    <line x1="350" y1="24" x2="350" y2="32" class="solid"></line>
  </g>
  <g>
    <line x1="344" y1="28" x2="346" y2="28" class="solid"></line>
    <line x1="346" y1="28" x2="346" y2="32" class="solid"></line>
  </g>
  <g>
    <line x1="384" y1="24" x2="390" y2="24" class="solid"></line>
    <line x1="390" y1="24" x2="390" y2="32" class="solid"></line>
  </g>
  <g>
    <line x1="384" y1="28" x2="386" y2="28" class="solid"></line>
    <line x1="386" y1="28" x2="386" y2="32" class="solid"></line>
  </g>
  <g>
    <line x1="432" y1="24" x2="438" y2="24" class="solid"></line>
    <line x1="438" y1="24" x2="438" y2="108" class="solid"></line>
    <line x1="402" y1="96" x2="402" y2="108" class="solid"></line>
    <line x1="402" y1="108" x2="438" y2="108" class="solid"></line>
  </g>
  <g>
    <line x1="432" y1="28" x2="434" y2="28" class="solid"></line>
    <line x1="434" y1="28" x2="434" y2="104" class="solid"></line>
    <line x1="406" y1="96" x2="406" y2="104" class="solid"></line>
    <line x1="406" y1="104" x2="434" y2="104" class="solid"></line>
  </g>
  <g>
    <line x1="488" y1="24" x2="494" y2="24" class="solid"></line>
    <line x1="494" y1="24" x2="494" y2="32" class="solid"></line>
  </g>
  <g>
    <line x1="488" y1="28" x2="490" y2="28" class="solid"></line>
    <line x1="490" y1="28" x2="490" y2="32" class="solid"></line>
  </g>
  <g>
    <line x1="178" y1="40" x2="200" y2="40" class="solid"></line>
    <line x1="178" y1="40" x2="178" y2="48" class="solid"></line>
  </g>
  <g>
    <line x1="182" y1="44" x2="200" y2="44" class="solid"></line>
    <line x1="182" y1="44" x2="182" y2="48" class="solid"></line>
  </g>
  <g>
    <line x1="216" y1="40" x2="222" y2="40" class="solid"></line>
    <line x1="222" y1="40" x2="222" y2="108" class="solid"></line>
    <line x1="202" y1="96" x2="202" y2="108" class="solid"></line>
    <line x1="202" y1="108" x2="222" y2="108" class="solid"></line>
  </g>
  <g>
    <line x1="216" y1="44" x2="218" y2="44" class="solid"></line>
    <line x1="218" y1="44" x2="218" y2="104" class="solid"></line>
    <line x1="206" y1="96" x2="206" y2="104" class="solid"></line>
    <line x1="206" y1="104" x2="218" y2="104" class="solid"></line>
  </g>
  <g>
    <line x1="226" y1="32" x2="226" y2="44" class="solid"></line>
    <line x1="226" y1="44" x2="248" y2="44" class="solid"></line>
  </g>
  <g>
    <line x1="230" y1="32" x2="230" y2="40" class="solid"></line>
    <line x1="230" y1="40" x2="248" y2="40" class="solid"></line>
  </g>
  <g>
    <line x1="314" y1="40" x2="336" y2="40" class="solid"></line>
    <line x1="314" y1="40" x2="314" y2="48" class="solid"></line>
  </g>
  <g>
    <line x1="318" y1="44" x2="336" y2="44" class="solid"></line>
    <line x1="318" y1="44" x2="318" y2="48" class="solid"></line>
  </g>
  <g>
    <line x1="352" y1="40" x2="358" y2="40" class="solid"></line>
    <line x1="358" y1="40" x2="358" y2="108" class="solid"></line>
    <line x1="338" y1="96" x2="338" y2="108" class="solid"></line>
    <line x1="338" y1="108" x2="358" y2="108" class="solid"></line>
  </g>
  <g>
    <line x1="352" y1="44" x2="354" y2="44" class="solid"></line>
    <line x1="354" y1="44" x2="354" y2="104" class="solid"></line>
    <line x1="342" y1="96" x2="342" y2="104" class="solid"></line>
    <line x1="342" y1="104" x2="354" y2="104" class="solid"></line>
  </g>
  <g>
    <line x1="392" y1="40" x2="398" y2="40" class="solid"></line>
    <line x1="398" y1="40" x2="398" y2="48" class="solid"></line>
  </g>
  <g>
    <line x1="392" y1="44" x2="394" y2="44" class="solid"></line>
    <line x1="394" y1="44" x2="394" y2="48" class="solid"></line>
  </g>
  <g>
    <line x1="458" y1="40" x2="480" y2="40" class="solid"></line>
    <line x1="458" y1="40" x2="458" y2="48" class="solid"></line>
  </g>
  <g>
    <line x1="462" y1="44" x2="480" y2="44" class="solid"></line>
    <line x1="462" y1="44" x2="462" y2="48" class="solid"></line>
  </g>
  <g>
    <line x1="496" y1="40" x2="502" y2="40" class="solid"></line>
    <line x1="502" y1="40" x2="502" y2="108" class="solid"></line>
    <line x1="482" y1="96" x2="482" y2="108" class="solid"></line>
    <line x1="482" y1="108" x2="502" y2="108" class="solid"></line>
  </g>
  <g>
    <line x1="496" y1="44" x2="498" y2="44" class="solid"></line>
    <line x1="498" y1="44" x2="498" y2="104" class="solid"></line>
    <line x1="486" y1="96" x2="486" y2="104" class="solid"></line>
    <line x1="486" y1="104" x2="498" y2="104" class="solid"></line>
  </g>
  <g>
    <line x1="378" y1="56" x2="384" y2="56" class="solid"></line>
    <line x1="378" y1="56" x2="378" y2="104" class="solid"></line>
    <line x1="366" y1="96" x2="366" y2="104" class="solid"></line>
    <line x1="366" y1="104" x2="378" y2="104" class="solid"></line>
  </g>
  <g>
    <line x1="382" y1="60" x2="384" y2="60" class="solid"></line>
    <line x1="382" y1="60" x2="382" y2="108" class="solid"></line>
    <line x1="362" y1="96" x2="362" y2="108" class="solid"></line>
    <line x1="362" y1="108" x2="382" y2="108" class="solid"></line>
  </g>
  <g>
    <line x1="400" y1="56" x2="406" y2="56" class="solid"></line>
    <line x1="406" y1="56" x2="406" y2="64" class="solid"></line>
  </g>
  <g>
    <line x1="400" y1="60" x2="402" y2="60" class="solid"></line>
    <line x1="402" y1="60" x2="402" y2="64" class="solid"></line>
  </g>
  <g>
    <line x1="114" y1="72" x2="128" y2="72" class="solid"></line>
    <line x1="114" y1="72" x2="114" y2="104" class="solid"></line>
    <line x1="102" y1="96" x2="102" y2="104" class="solid"></line>
    <line x1="102" y1="104" x2="114" y2="104" class="solid"></line>
  </g>
  <g>
    <line x1="118" y1="76" x2="128" y2="76" class="solid"></line>
    <line x1="118" y1="76" x2="118" y2="108" class="solid"></line>
    <line x1="98" y1="96" x2="98" y2="108" class="solid"></line>
    <line x1="98" y1="108" x2="118" y2="108" class="solid"></line>
  </g>
  <g>
    <line x1="144" y1="72" x2="150" y2="72" class="solid"></line>
    <line x1="150" y1="72" x2="150" y2="80" class="solid"></line>
  </g>
  <g>
    <line x1="144" y1="76" x2="146" y2="76" class="solid"></line>
    <line x1="146" y1="76" x2="146" y2="80" class="solid"></line>
  </g>
  <g>
    <line x1="178" y1="72" x2="200" y2="72" class="solid"></line>
    <line x1="178" y1="72" x2="178" y2="104" class="solid"></line>
    <line x1="166" y1="96" x2="166" y2="104" class="solid"></line>
    <line x1="166" y1="104" x2="178" y2="104" class="solid"></line>
  </g>
  <g>
    <line x1="182" y1="76" x2="200" y2="76" class="solid"></line>
    <line x1="182" y1="76" x2="182" y2="108" class="solid"></line>
    <line x1="162" y1="96" x2="162" y2="108" class="solid"></line>
    <line x1="162" y1="108" x2="182" y2="108" class="solid"></line>
  </g>
  <g>
    <line x1="314" y1="72" x2="336" y2="72" class="solid"></line>
    <line x1="314" y1="72" x2="314" y2="104" class="solid"></line>
    <line x1="302" y1="96" x2="302" y2="104" class="solid"></line>
    <line x1="302" y1="104" x2="314" y2="104" class="solid"></line>
  </g>
  <g>
    <line x1="318" y1="76" x2="336" y2="76" class="solid"></line>
    <line x1="318" y1="76" x2="318" y2="108" class="solid"></line>
    <line x1="298" y1="96" x2="298" y2="108" class="solid"></line>
    <line x1="298" y1="108" x2="318" y2="108" class="solid"></line>
  </g>
  <g>
    <line x1="386" y1="64" x2="386" y2="76" class="solid"></line>
    <line x1="386" y1="76" x2="392" y2="76" class="solid"></line>
  </g>
  <g>
    <line x1="390" y1="64" x2="390" y2="72" class="solid"></line>
    <line x1="390" y1="72" x2="392" y2="72" class="solid"></line>
  </g>
  <g>
    <line x1="408" y1="72" x2="414" y2="72" class="solid"></line>
    <line x1="414" y1="72" x2="414" y2="80" class="solid"></line>
  </g>
  <g>
    <line x1="408" y1="76" x2="410" y2="76" class="solid"></line>
    <line x1="410" y1="76" x2="410" y2="80" class="solid"></line>
  </g>
  <g>
    <line x1="458" y1="72" x2="480" y2="72" class="solid"></line>
    <line x1="458" y1="72" x2="458" y2="104" class="solid"></line>
    <line x1="446" y1="96" x2="446" y2="104" class="solid"></line>
    <line x1="446" y1="104" x2="458" y2="104" class="solid"></line>
  </g>
  <g>
    <line x1="462" y1="76" x2="480" y2="76" class="solid"></line>
    <line x1="462" y1="76" x2="462" y2="108" class="solid"></line>
    <line x1="442" y1="96" x2="442" y2="108" class="solid"></line>
    <line x1="442" y1="108" x2="462" y2="108" class="solid"></line>
  </g>
  <g>
    <line x1="152" y1="88" x2="158" y2="88" class="solid"></line>
    <line x1="158" y1="88" x2="158" y2="108" class="solid"></line>
    <line x1="138" y1="96" x2="138" y2="108" class="solid"></line>
    <line x1="138" y1="108" x2="158" y2="108" class="solid"></line>
  </g>
  <g>
    <line x1="152" y1="92" x2="154" y2="92" class="solid"></line>
    <line x1="154" y1="92" x2="154" y2="104" class="solid"></line>
    <line x1="142" y1="96" x2="142" y2="104" class="solid"></line>
    <line x1="142" y1="104" x2="154" y2="104" class="solid"></line>
  </g>
  <g>
    <line x1="394" y1="80" x2="394" y2="92" class="solid"></line>
    <line x1="394" y1="92" x2="400" y2="92" class="solid"></line>
  </g>
  <g>
    <line x1="398" y1="80" x2="398" y2="88" class="solid"></line>
    <line x1="398" y1="88" x2="400" y2="88" class="solid"></line>
  </g>
  <g>
    <line x1="8" y1="128" x2="456" y2="128" class="solid"></line>
    <line x1="8" y1="128" x2="16" y2="144" class="solid"></line>
    <line x1="16" y1="144" x2="456" y2="144" class="solid"></line>
  </g>
  <g>
    <line x1="592" y1="128" x2="604" y2="128" class="solid"></line>
    <line x1="604" y1="124" x2="604" y2="144" class="solid"></line>
    <line x1="592" y1="144" x2="604" y2="144" class="solid"></line>
  </g>
</svg>